<?xml version="1.0" encoding="UTF-8"?>
<svg width="512" height="512" viewBox="0 0 512 512" fill="none" xmlns="http://www.w3.org/2000/svg">
  <g>
    <path d="M256 128 C256 128 384 192 384 320 C384 448 256 512 256 512 C256 512 128 448 128 320 C128 192 256 128 256 128Z" fill="url(#gradient1)"/>
    <path d="M256 64 C256 64 384 128 384 256 C384 384 256 448 256 448 C256 448 128 384 128 256 C128 128 256 64 256 64Z" fill="url(#gradient2)"/>
  </g>
  <defs>
    <linearGradient id="gradient1" x1="128" y1="128" x2="384" y2="512" gradientUnits="userSpaceOnUse">
      <stop offset="0%" stop-color="#2DD4BF"/>
      <stop offset="100%" stop-color="#7C3AED"/>
    </linearGradient>
    <linearGradient id="gradient2" x1="128" y1="64" x2="384" y2="448" gradientUnits="userSpaceOnUse">
      <stop offset="0%" stop-color="#2DD4BF"/>
      <stop offset="100%" stop-color="#7C3AED"/>
    </linearGradient>
  </defs>
</svg> 